# xmcd
#
# Track frame offsets: 
#        150
#        33122
#        55810
#
# Disc length: 986 seconds
#
# Revision: 10
# Processed by: cddbd v1.5.2PL0 Copyright (c) Steve Scherf et al.
# Submitted via: ExactAudioCopy v1.3
#
DISCID=1a03d803
DTITLE=Madonna - Justify My Love - Germany edition
DYEAR=1990
DGENRE=Pop
TTITLE0=Justify My Love [William Orbit Remix]
TTITLE1=Justify My Love
TTITLE2=Express Yourself [Shep's 'Spressin' Himself Re-Remix]
EXTD=
EXTT0=
EXTT1=
EXTT2=
PLAYORDER=
